<svg xmlns="http://www.w3.org/2000/svg" viewBox="0 0 64 64"><defs><style>.a{fill:#4a25aa;}.b{fill:#f4f7ff;}</style></defs><rect class="a" width="64" height="64"/><path class="b" d="M4.56,64V34.37h6.06v3.48h1a7.7,7.7,0,0,1,2.7-2.76,9.21,9.21,0,0,1,5-1.2,9.37,9.37,0,0,1,5.31,1.35,8.66,8.66,0,0,1,3,3.45h1a9.18,9.18,0,0,1,3-3.42,9.52,9.52,0,0,1,5.55-1.38,10.78,10.78,0,0,1,5.1,1.17,8.71,8.71,0,0,1,3.54,3.48,11.4,11.4,0,0,1,1.32,5.73V64H40.92V44.75a5.12,5.12,0,0,0-5.64-5.64A6,6,0,0,0,30.66,41a7.53,7.53,0,0,0-1.74,5.34V64H22.74V44.75a5.64,5.64,0,0,0-1.47-4.17,5.64,5.64,0,0,0-4.17-1.47A6,6,0,0,0,12.48,41a7.53,7.53,0,0,0-1.74,5.34V64Z"/></svg>